<svg width="444.451" height="171.751" viewBox="0 0 444.451 171.751" xmlns="http://www.w3.org/2000/svg">
	<g id="svgGroup" stroke-linecap="round" fill-rule="evenodd" font-size="9pt" stroke="#000" stroke-width="0.25mm" fill="none" style="stroke:#000;stroke-width:0.25mm;fill:none">
		<path d="M 39.3 101.85 L 40.35 94.2 Q 42.45 79.8 43.65 65.85 Q 44.339 59.649 45.644 48.787 A 5227.126 5227.126 0 0 1 46.5 41.7 A 12.913 12.913 0 0 1 47.12 39.096 Q 47.701 37.479 48.709 36.335 A 7.232 7.232 0 0 1 49.8 35.325 Q 52.395 33.38 57.621 33.304 A 29.517 29.517 0 0 1 58.05 33.3 A 23.78 23.78 0 0 1 59.872 33.365 Q 61.749 33.51 62.887 33.98 A 3.516 3.516 0 0 1 63.975 34.65 A 4.433 4.433 0 0 1 65.257 36.987 A 6.631 6.631 0 0 1 65.4 38.4 A 44.752 44.752 0 0 1 65.226 41.842 Q 64.472 51.15 60.45 76.5 L 58.95 86.85 Q 70.153 78.448 79.526 72.138 A 349.15 349.15 0 0 1 80.85 71.25 A 10.81 10.81 0 0 1 82.025 70.618 Q 82.647 70.334 83.216 70.192 A 4.485 4.485 0 0 1 84.3 70.05 A 3.278 3.278 0 0 1 86.904 71.265 A 4.91 4.91 0 0 1 87.375 71.925 A 7.438 7.438 0 0 1 88.219 74.044 Q 88.443 74.985 88.488 76.082 A 13.709 13.709 0 0 1 88.5 76.65 A 18.421 18.421 0 0 1 88.398 78.66 Q 88.287 79.669 88.055 80.506 A 7.415 7.415 0 0 1 87.45 82.05 A 8.633 8.633 0 0 1 85.835 84.155 A 11.885 11.885 0 0 1 84.15 85.5 Q 73.65 92.4 56.1 104.55 A 284.934 284.934 0 0 1 52.107 122.747 Q 49.744 131.965 46.98 139.63 A 113.954 113.954 0 0 1 40.95 153.6 Q 35.64 163.791 28.669 168.164 A 21.081 21.081 0 0 1 17.25 171.45 A 20.905 20.905 0 0 1 11.729 170.758 A 15.497 15.497 0 0 1 4.725 166.725 Q 0 162 0 154.35 A 31.867 31.867 0 0 1 1.874 143.876 Q 3.289 139.799 5.772 135.538 A 64.575 64.575 0 0 1 8.25 131.625 A 69.071 69.071 0 0 1 14.042 124.388 Q 20.823 116.885 31.996 107.684 A 325.142 325.142 0 0 1 39.3 101.85 Z M 18.9 156.9 Q 22.8 156.9 27.45 148.05 A 52.237 52.237 0 0 0 30.018 142.218 Q 33.239 133.674 36.15 119.55 A 136.187 136.187 0 0 0 29.648 125.461 Q 23.284 131.66 19.837 137.001 A 40.329 40.329 0 0 0 19.725 137.175 A 43.485 43.485 0 0 0 17.079 141.907 Q 14.7 146.922 14.7 151.05 A 11.999 11.999 0 0 0 14.867 153.149 Q 15.522 156.816 18.75 156.899 A 5.871 5.871 0 0 0 18.9 156.9 Z M 47.85 20.475 A 9.448 9.448 0 0 0 50.501 22.191 Q 53.25 23.4 57.3 23.4 A 19.401 19.401 0 0 0 61.477 22.974 A 13.277 13.277 0 0 0 67.65 19.875 A 11.333 11.333 0 0 0 70.979 14.581 A 14.882 14.882 0 0 0 71.55 10.35 A 12.813 12.813 0 0 0 71.466 8.858 A 8.787 8.787 0 0 0 68.1 2.7 Q 65.937 1.008 62.949 0.376 A 18.611 18.611 0 0 0 59.1 0 A 19.489 19.489 0 0 0 56.674 0.147 A 14.587 14.587 0 0 0 48.825 3.525 Q 44.7 7.05 44.7 12.3 A 14.355 14.355 0 0 0 45.008 15.355 A 9.572 9.572 0 0 0 47.85 20.475 Z" id="0" vector-effect="non-scaling-stroke"/>
		<path d="M 148.874 70.939 A 3.338 3.338 0 0 0 146.25 69.75 A 4.706 4.706 0 0 0 143.46 70.676 A 7.146 7.146 0 0 0 142.2 71.85 Q 135.9 79.5 127.275 84.225 A 51.59 51.59 0 0 1 123.223 86.23 Q 117.022 88.95 111.9 88.95 A 29.833 29.833 0 0 1 110.435 88.915 Q 107.628 88.777 105.352 88.098 A 12.381 12.381 0 0 1 97.65 82.05 Q 109.283 79.191 116.478 75.004 A 30.645 30.645 0 0 0 122.775 70.275 Q 130.2 62.85 130.2 52.5 A 25.021 25.021 0 0 0 129.737 47.57 A 17.189 17.189 0 0 0 124.95 38.475 A 17.297 17.297 0 0 0 117.04 34.028 A 23.78 23.78 0 0 0 111 33.3 Q 101.25 33.3 93.525 38.55 Q 85.8 43.8 81.45 52.725 Q 77.1 61.65 77.1 72 A 41.845 41.845 0 0 0 77.971 80.767 A 28.3 28.3 0 0 0 85.8 95.4 A 26.704 26.704 0 0 0 89.504 98.439 Q 97.605 103.95 110.25 103.95 Q 121.8 103.95 131.925 98.25 Q 137.383 95.178 141.512 91.8 A 43.493 43.493 0 0 0 147.6 85.8 A 10.124 10.124 0 0 0 148.954 83.777 Q 149.773 82.174 150.143 80.147 A 20.299 20.299 0 0 0 150.45 76.5 A 15.12 15.12 0 0 0 150.386 75.077 Q 150.293 74.093 150.064 73.273 A 6.564 6.564 0 0 0 149.325 71.55 A 4.747 4.747 0 0 0 148.874 70.939 Z M 95.25 70.05 L 95.25 70.35 Q 102.176 68.707 106.805 65.777 A 23.684 23.684 0 0 0 109.2 64.05 A 16.261 16.261 0 0 0 112.104 61.003 A 11.25 11.25 0 0 0 114.3 54.3 A 8.368 8.368 0 0 0 114.08 52.326 A 5.816 5.816 0 0 0 112.725 49.725 A 5.193 5.193 0 0 0 109.577 48.083 A 7.415 7.415 0 0 0 108.45 48 Q 103.42 48 99.807 53.298 A 21.588 21.588 0 0 0 99.075 54.45 A 26.624 26.624 0 0 0 95.881 63.062 A 36.869 36.869 0 0 0 95.25 70.05 Z" id="1" vector-effect="non-scaling-stroke"/>
		<path d="M 207.824 70.939 A 3.338 3.338 0 0 0 205.2 69.75 A 4.706 4.706 0 0 0 202.41 70.676 A 7.146 7.146 0 0 0 201.15 71.85 Q 194.85 79.5 186.225 84.225 A 51.59 51.59 0 0 1 182.173 86.23 Q 175.972 88.95 170.85 88.95 A 29.833 29.833 0 0 1 169.385 88.915 Q 166.578 88.777 164.302 88.098 A 12.381 12.381 0 0 1 156.6 82.05 Q 168.233 79.191 175.428 75.004 A 30.645 30.645 0 0 0 181.725 70.275 Q 189.15 62.85 189.15 52.5 A 25.021 25.021 0 0 0 188.687 47.57 A 17.189 17.189 0 0 0 183.9 38.475 A 17.297 17.297 0 0 0 175.99 34.028 A 23.78 23.78 0 0 0 169.95 33.3 Q 160.2 33.3 152.475 38.55 Q 144.75 43.8 140.4 52.725 Q 136.05 61.65 136.05 72 A 41.845 41.845 0 0 0 136.921 80.767 A 28.3 28.3 0 0 0 144.75 95.4 A 26.704 26.704 0 0 0 148.454 98.439 Q 156.555 103.95 169.2 103.95 Q 180.75 103.95 190.875 98.25 Q 196.333 95.178 200.462 91.8 A 43.493 43.493 0 0 0 206.55 85.8 A 10.124 10.124 0 0 0 207.904 83.777 Q 208.723 82.174 209.093 80.147 A 20.299 20.299 0 0 0 209.4 76.5 A 15.12 15.12 0 0 0 209.336 75.077 Q 209.243 74.093 209.014 73.273 A 6.564 6.564 0 0 0 208.275 71.55 A 4.747 4.747 0 0 0 207.824 70.939 Z M 154.2 70.05 L 154.2 70.35 Q 161.126 68.707 165.755 65.777 A 23.684 23.684 0 0 0 168.15 64.05 A 16.261 16.261 0 0 0 171.054 61.003 A 11.25 11.25 0 0 0 173.25 54.3 A 8.368 8.368 0 0 0 173.03 52.326 A 5.816 5.816 0 0 0 171.675 49.725 A 5.193 5.193 0 0 0 168.527 48.083 A 7.415 7.415 0 0 0 167.4 48 Q 162.37 48 158.757 53.298 A 21.588 21.588 0 0 0 158.025 54.45 A 26.624 26.624 0 0 0 154.831 63.062 A 36.869 36.869 0 0 0 154.2 70.05 Z" id="2" vector-effect="non-scaling-stroke"/>
		<path d="M 282.974 70.939 A 3.338 3.338 0 0 0 280.35 69.75 A 4.706 4.706 0 0 0 277.56 70.676 A 7.146 7.146 0 0 0 276.3 71.85 Q 269.25 80.25 264.75 83.85 Q 260.25 87.45 255.3 87.45 A 12.627 12.627 0 0 1 253.732 87.344 Q 252.117 87.141 250.05 86.55 Q 254.55 80.4 257.1 72.9 Q 259.65 65.4 259.65 57.45 Q 259.65 52.82 258.698 48.941 A 23.774 23.774 0 0 0 254.325 39.75 A 21.062 21.062 0 0 0 253.123 38.355 A 16.504 16.504 0 0 0 240.6 33 Q 235.35 33 230.7 35.625 A 22.785 22.785 0 0 0 228.27 37.22 Q 224.801 39.812 221.25 44.25 A 21.586 21.586 0 0 1 221.245 44.185 Q 221.1 42.382 221.1 38.7 A 17.734 17.734 0 0 0 221.028 37.646 Q 220.853 35.899 220.339 34.811 A 3.517 3.517 0 0 0 219.525 33.675 A 3.531 3.531 0 0 0 219.411 33.578 Q 218.395 32.744 216.58 32.501 A 12.313 12.313 0 0 0 214.95 32.4 A 19.063 19.063 0 0 0 211.079 32.774 A 13.498 13.498 0 0 0 205.95 34.95 A 10.379 10.379 0 0 0 205.63 35.187 Q 202.357 37.699 202.5 41.85 A 279.677 279.677 0 0 1 202.597 45.289 Q 202.8 54.27 202.8 72.3 A 334.253 334.253 0 0 0 198.98 78.845 Q 193.467 88.545 189.263 97.536 A 184.051 184.051 0 0 0 181.95 115.425 A 160.144 160.144 0 0 0 179.279 123.901 Q 177.332 130.762 176.314 136.952 A 78.784 78.784 0 0 0 175.2 149.7 Q 175.2 160.05 179.1 165.9 A 12.431 12.431 0 0 0 186.237 171.121 A 17.674 17.674 0 0 0 191.1 171.75 Q 204.45 171.75 211.35 152.325 Q 215.663 140.185 218.041 124.323 A 251.694 251.694 0 0 0 220.2 103.95 A 31.4 31.4 0 0 0 228.194 102.786 A 35.828 35.828 0 0 0 238.05 98.25 A 16.018 16.018 0 0 0 244.568 102.859 A 18.013 18.013 0 0 0 250.95 103.95 Q 260.4 103.95 267.825 98.85 A 59.474 59.474 0 0 0 273.697 94.236 A 71.941 71.941 0 0 0 281.7 85.8 A 10.124 10.124 0 0 0 283.054 83.777 Q 283.873 82.174 284.243 80.147 A 20.299 20.299 0 0 0 284.55 76.5 A 15.12 15.12 0 0 0 284.486 75.077 Q 284.393 74.093 284.164 73.273 A 6.564 6.564 0 0 0 283.425 71.55 A 4.747 4.747 0 0 0 282.974 70.939 Z M 198.756 141.271 A 146.754 146.754 0 0 0 199.05 139.425 A 252.261 252.261 0 0 0 200.801 124.994 Q 201.416 118.475 201.841 111.114 A 536.765 536.765 0 0 0 202.5 95.55 A 241.286 241.286 0 0 0 195.793 112.887 A 194.681 194.681 0 0 0 192.3 124.2 A 133.924 133.924 0 0 0 190.165 133.071 Q 188.55 141.047 188.55 147.15 A 33.029 33.029 0 0 0 188.649 149.802 Q 188.859 152.401 189.514 154.11 A 8.552 8.552 0 0 0 189.675 154.5 Q 190.8 157.05 192.3 157.05 Q 196.132 157.05 198.756 141.271 Z M 220.95 89.55 A 18.147 18.147 0 0 0 227.682 86.457 A 24.561 24.561 0 0 0 230.925 83.625 A 32.396 32.396 0 0 0 236.329 76.065 A 40.119 40.119 0 0 0 238.2 71.925 A 40.16 40.16 0 0 0 240.9 57.3 A 18 18 0 0 0 240.733 54.76 Q 240.548 53.468 240.159 52.422 A 7.326 7.326 0 0 0 239.1 50.475 A 5.697 5.697 0 0 0 234.964 48.18 A 7.252 7.252 0 0 0 234.3 48.15 A 7.026 7.026 0 0 0 230.896 49.155 Q 227.032 51.31 222.257 58.086 A 77.7 77.7 0 0 0 221.25 59.55 Q 221.1 66.15 221.1 78.9 Q 221.1 85.8 220.95 89.55 Z" id="3" vector-effect="non-scaling-stroke"/>
		<path d="M 285.276 103.277 A 21.608 21.608 0 0 0 290.85 103.95 A 19.526 19.526 0 0 0 295.324 103.418 Q 302.997 101.617 311.325 93.714 A 85.823 85.823 0 0 0 318.6 85.8 A 10.124 10.124 0 0 0 319.954 83.777 Q 320.773 82.174 321.143 80.147 A 20.299 20.299 0 0 0 321.45 76.5 A 15.12 15.12 0 0 0 321.386 75.077 Q 321.293 74.093 321.064 73.273 A 6.564 6.564 0 0 0 320.325 71.55 A 4.747 4.747 0 0 0 319.874 70.939 A 3.338 3.338 0 0 0 317.25 69.75 A 4.706 4.706 0 0 0 314.46 70.676 A 7.146 7.146 0 0 0 313.2 71.85 A 276.287 276.287 0 0 1 311.003 74.456 Q 305.768 80.582 302.4 83.7 A 28.092 28.092 0 0 1 301.061 84.868 Q 297.891 87.45 295.65 87.45 Q 293.913 87.45 292.789 86.559 A 4.396 4.396 0 0 1 291.6 85.05 A 7.463 7.463 0 0 1 291.47 84.777 Q 290.737 83.147 290.506 80.637 A 27.263 27.263 0 0 1 290.4 78.15 Q 290.4 72.3 294 55.8 Q 296.238 45.083 296.719 40.469 A 20.747 20.747 0 0 0 296.85 38.4 A 6.439 6.439 0 0 0 296.84 38.031 Q 296.568 33.3 289.2 33.3 Q 286.029 33.3 283.966 34.039 A 6.774 6.774 0 0 0 282 35.1 A 6.07 6.07 0 0 0 281.588 35.463 Q 280.233 36.764 279.231 39.238 A 23.552 23.552 0 0 0 278.4 41.7 Q 275.7 50.85 273.975 61.425 A 174.257 174.257 0 0 0 273.029 67.953 Q 272.25 74.215 272.25 78.75 A 53.099 53.099 0 0 0 272.379 82.508 Q 272.657 86.426 273.536 89.733 A 25.672 25.672 0 0 0 276.675 97.05 A 14.205 14.205 0 0 0 285.276 103.277 Z M 282.6 20.475 A 9.448 9.448 0 0 0 285.251 22.191 Q 288 23.4 292.05 23.4 A 19.401 19.401 0 0 0 296.227 22.974 A 13.277 13.277 0 0 0 302.4 19.875 A 11.333 11.333 0 0 0 305.729 14.581 A 14.882 14.882 0 0 0 306.3 10.35 A 12.813 12.813 0 0 0 306.216 8.858 A 8.787 8.787 0 0 0 302.85 2.7 Q 300.687 1.008 297.699 0.376 A 18.611 18.611 0 0 0 293.85 0 A 19.489 19.489 0 0 0 291.424 0.147 A 14.587 14.587 0 0 0 283.575 3.525 Q 279.45 7.05 279.45 12.3 A 14.355 14.355 0 0 0 279.758 15.355 A 9.572 9.572 0 0 0 282.6 20.475 Z" id="4" vector-effect="non-scaling-stroke"/>
		<path d="M 378.824 70.939 A 3.338 3.338 0 0 0 376.2 69.75 A 4.706 4.706 0 0 0 373.41 70.676 A 7.146 7.146 0 0 0 372.15 71.85 Q 365.85 79.5 357.225 84.225 A 51.59 51.59 0 0 1 353.173 86.23 Q 346.972 88.95 341.85 88.95 A 29.833 29.833 0 0 1 340.385 88.915 Q 337.578 88.777 335.302 88.098 A 12.381 12.381 0 0 1 327.6 82.05 Q 339.233 79.191 346.428 75.004 A 30.645 30.645 0 0 0 352.725 70.275 Q 360.15 62.85 360.15 52.5 A 25.021 25.021 0 0 0 359.687 47.57 A 17.189 17.189 0 0 0 354.9 38.475 A 17.297 17.297 0 0 0 346.99 34.028 A 23.78 23.78 0 0 0 340.95 33.3 Q 331.2 33.3 323.475 38.55 Q 315.75 43.8 311.4 52.725 Q 307.05 61.65 307.05 72 A 41.845 41.845 0 0 0 307.921 80.767 A 28.3 28.3 0 0 0 315.75 95.4 A 26.704 26.704 0 0 0 319.454 98.439 Q 327.555 103.95 340.2 103.95 Q 351.75 103.95 361.875 98.25 Q 367.333 95.178 371.462 91.8 A 43.493 43.493 0 0 0 377.55 85.8 A 10.124 10.124 0 0 0 378.904 83.777 Q 379.723 82.174 380.093 80.147 A 20.299 20.299 0 0 0 380.4 76.5 A 15.12 15.12 0 0 0 380.336 75.077 Q 380.243 74.093 380.014 73.273 A 6.564 6.564 0 0 0 379.275 71.55 A 4.747 4.747 0 0 0 378.824 70.939 Z M 325.2 70.05 L 325.2 70.35 Q 332.126 68.707 336.755 65.777 A 23.684 23.684 0 0 0 339.15 64.05 A 16.261 16.261 0 0 0 342.054 61.003 A 11.25 11.25 0 0 0 344.25 54.3 A 8.368 8.368 0 0 0 344.03 52.326 A 5.816 5.816 0 0 0 342.675 49.725 A 5.193 5.193 0 0 0 339.527 48.083 A 7.415 7.415 0 0 0 338.4 48 Q 333.37 48 329.757 53.298 A 21.588 21.588 0 0 0 329.025 54.45 A 26.624 26.624 0 0 0 325.831 63.062 A 36.869 36.869 0 0 0 325.2 70.05 Z" id="5" vector-effect="non-scaling-stroke"/>
		<path d="M 361.5 84.15 L 363.45 81.75 Q 371.7 71.55 375.9 64.95 Q 378.45 60.6 381.9 53.325 Q 385.35 46.05 388.65 38.25 Q 391.5 31.65 400.5 31.65 Q 403.616 31.65 405.329 32.063 A 5.733 5.733 0 0 1 406.35 32.4 Q 408 33.15 408 34.8 A 4.181 4.181 0 0 1 407.958 35.353 Q 407.879 35.934 407.654 36.772 A 25.303 25.303 0 0 1 407.4 37.65 A 21.175 21.175 0 0 1 406.128 40.819 A 24.106 24.106 0 0 1 405.75 41.55 A 35.118 35.118 0 0 0 404.326 44.764 Q 403.05 48.122 403.05 50.7 Q 403.05 52.561 404.127 54.73 A 15.624 15.624 0 0 0 404.625 55.65 Q 406.128 58.227 409.202 62.033 A 109.502 109.502 0 0 0 409.5 62.4 Q 414.3 68.7 416.775 73.125 Q 419.25 77.55 419.25 82.8 Q 419.25 83.949 419.074 85.801 A 75.652 75.652 0 0 1 418.95 87 A 22.082 22.082 0 0 0 423.539 84.475 Q 427.937 81.408 433.085 75.559 A 110.076 110.076 0 0 0 436.2 71.85 A 7.146 7.146 0 0 1 437.46 70.676 A 4.706 4.706 0 0 1 440.25 69.75 A 3.338 3.338 0 0 1 442.874 70.939 A 4.747 4.747 0 0 1 443.325 71.55 A 6.564 6.564 0 0 1 444.064 73.273 Q 444.293 74.093 444.386 75.077 A 15.12 15.12 0 0 1 444.45 76.5 A 18.637 18.637 0 0 1 444.032 80.557 Q 443.38 83.484 441.709 85.661 A 11.911 11.911 0 0 1 441.6 85.8 A 73.033 73.033 0 0 1 436.978 91.034 Q 431.967 96.155 427.275 98.475 A 32.598 32.598 0 0 1 420.168 100.964 Q 416.846 101.734 413.013 102.016 A 59.949 59.949 0 0 1 410.4 102.15 Q 404.4 107.25 396.15 107.25 A 27.127 27.127 0 0 1 391.634 106.899 Q 387.061 106.125 384.225 103.65 A 14.129 14.129 0 0 1 381.877 101.069 A 9.51 9.51 0 0 1 380.1 95.55 A 9.207 9.207 0 0 1 382.862 88.89 A 11.697 11.697 0 0 1 382.95 88.8 A 9.047 9.047 0 0 1 386.673 86.598 Q 388.102 86.143 389.834 86.007 A 19.503 19.503 0 0 1 391.35 85.95 Q 393.3 85.95 395.925 86.325 A 274.149 274.149 0 0 0 397.158 86.499 Q 398.347 86.663 399.197 86.768 A 61.024 61.024 0 0 0 399.9 86.85 Q 399.75 82.95 398.175 79.5 A 36.511 36.511 0 0 0 394.497 73.229 A 40.303 40.303 0 0 0 394.2 72.825 A 110.337 110.337 0 0 0 392.016 69.983 Q 390.966 68.664 389.98 67.523 A 65.728 65.728 0 0 0 389.7 67.2 Q 385.05 76.05 380.475 81.9 Q 375.9 87.75 370.5 93 Q 368.218 95.282 365.722 95.636 A 6.569 6.569 0 0 1 364.8 95.7 A 5.42 5.42 0 0 1 362.841 95.358 A 4.862 4.862 0 0 1 360.9 93.975 A 6.067 6.067 0 0 1 359.444 90.553 A 8.003 8.003 0 0 1 359.4 89.7 A 8.33 8.33 0 0 1 360.951 84.877 A 10.769 10.769 0 0 1 361.5 84.15 Z" id="6" vector-effect="non-scaling-stroke"/>
	</g>
</svg>